<?xml version="1.0" encoding="UTF-8" standalone="no"?>
<svg
   xmlns:dc="http://purl.org/dc/elements/1.1/"
   xmlns:cc="http://creativecommons.org/ns#"
   xmlns:rdf="http://www.w3.org/1999/02/22-rdf-syntax-ns#"
   xmlns:svg="http://www.w3.org/2000/svg"
   xmlns="http://www.w3.org/2000/svg"
   viewBox="0 0 2159.4668 724.57202"
   height="724.57202"
   width="2159.4668"
   xml:space="preserve"
   id="svg2"
   version="1.1"><metadata
     id="metadata8"><rdf:RDF><cc:Work
         rdf:about=""><dc:format>image/svg+xml</dc:format><dc:type
           rdf:resource="http://purl.org/dc/dcmitype/StillImage" /></cc:Work></rdf:RDF></metadata><defs
     id="defs6"><clipPath
       id="clipPath18"
       clipPathUnits="userSpaceOnUse"><path
         id="path16"
         d="M 0,543.429 H 1619.602 V 0 H 0 Z" /></clipPath><linearGradient
       id="linearGradient52"
       spreadMethod="pad"
       gradientTransform="matrix(-52.85305,-67.95388,-67.95388,52.85305,284.2782,168.58615)"
       gradientUnits="userSpaceOnUse"
       y2="0"
       x2="1"
       y1="0"
       x1="0"><stop
         id="stop44"
         offset="0"
         style="stop-opacity:1;stop-color:#606060" /><stop
         id="stop46"
         offset="0.60712699"
         style="stop-opacity:1;stop-color:#e0e1e2" /><stop
         id="stop48"
         offset="0.994559"
         style="stop-opacity:1;stop-color:#e0e1e2" /><stop
         id="stop50"
         offset="1"
         style="stop-opacity:1;stop-color:#e0e1e2" /></linearGradient><clipPath
       id="clipPath62"
       clipPathUnits="userSpaceOnUse"><path
         id="path60"
         d="M 0,543.429 H 1619.602 V 0 H 0 Z" /></clipPath><linearGradient
       id="linearGradient88"
       spreadMethod="pad"
       gradientTransform="matrix(-26.474331,-27.734993,-27.734993,26.474331,537.94641,289.11914)"
       gradientUnits="userSpaceOnUse"
       y2="0"
       x2="1"
       y1="0"
       x1="0"><stop
         id="stop84"
         offset="0"
         style="stop-opacity:1;stop-color:#757575" /><stop
         id="stop86"
         offset="1"
         style="stop-opacity:1;stop-color:#b6b6b7" /></linearGradient><clipPath
       id="clipPath98"
       clipPathUnits="userSpaceOnUse"><path
         id="path96"
         d="M 0,543.429 H 1619.602 V 0 H 0 Z" /></clipPath><clipPath
       id="clipPath110"
       clipPathUnits="userSpaceOnUse"><path
         id="path108"
         d="M 0,543.429 H 1619.602 V 0 H 0 Z" /></clipPath><clipPath
       id="clipPath190"
       clipPathUnits="userSpaceOnUse"><path
         id="path188"
         d="M 0,543.429 H 1619.602 V 0 H 0 Z" /></clipPath></defs><g
     transform="matrix(1.3333333,0,0,-1.3333333,0,724.572)"
     id="g10"><g
       id="g12"><g
         clip-path="url(#clipPath18)"
         id="g14"><g
           transform="translate(395.1806,482.035)"
           id="g20"><path
             id="path22"
             style="fill:#982f32;fill-opacity:1;fill-rule:nonzero;stroke:none"
             d="m 0,0 c -36.139,0 -65.54,-29.401 -65.54,-65.54 0,-36.139 29.401,-65.541 65.54,-65.541 36.139,0 65.54,29.402 65.54,65.541 C 65.54,-29.401 36.139,0 0,0 m 0,-31.78 c 18.645,0 33.76,-15.115 33.76,-33.76 0,-18.645 -15.115,-33.76 -33.76,-33.76 -18.645,0 -33.76,15.115 -33.76,33.76 0,18.645 15.115,33.76 33.76,33.76" /></g><g
           transform="translate(253.1857,400.6615)"
           id="g24"><path
             id="path26"
             style="fill:#e0e1e2;fill-opacity:1;fill-rule:nonzero;stroke:none"
             d="m 0,0 c -6.211,-11.664 -19.072,-19.261 -33.505,-17.729 -16.347,1.736 -29.278,15.542 -30.034,31.963 -0.893,19.369 14.546,35.352 33.719,35.352 10.089,0 19.146,-4.429 25.33,-11.457 4.246,-4.826 10.937,-6.678 16.941,-4.378 0.52,0.2 1.04,0.399 1.56,0.598 9.62,3.686 12.909,15.804 6.269,23.682 -13.569,16.098 -34.74,25.592 -57.9,22.898 -29.959,-3.485 -54.009,-27.668 -57.338,-57.644 -4.382,-39.446 26.53,-72.983 65.138,-72.983 25.065,0 46.893,14.149 57.901,34.885 C 33.544,-4.522 25.803,7.886 14.151,7.976 14.037,7.977 13.923,7.978 13.809,7.979 8.097,8.023 2.685,5.042 0,0" /></g><g
           transform="translate(308.625,184.3614)"
           id="g28"><path
             id="path30"
             style="fill:#e0e1e2;fill-opacity:1;fill-rule:nonzero;stroke:none"
             d="m 0,0 -64.755,-64.755 c -0.774,-0.774 -1.62,-1.451 -2.515,-2.031 -0.314,-0.217 -0.628,-0.387 -0.943,-0.556 -0.169,-0.121 -0.362,-0.218 -0.532,-0.29 -0.29,-0.17 -0.58,-0.29 -0.87,-0.411 -0.242,-0.121 -0.484,-0.218 -0.75,-0.315 -0.096,-0.048 -0.217,-0.072 -0.314,-0.121 0,0 -0.097,-0.024 -0.242,-0.072 -0.073,-0.024 -0.145,-0.048 -0.242,-0.073 -0.241,-0.096 -0.507,-0.169 -0.749,-0.217 -0.097,-0.025 -0.218,-0.049 -0.339,-0.073 -0.169,-0.048 -0.362,-0.072 -0.556,-0.121 -0.435,-0.121 -0.87,-0.193 -1.306,-0.218 -0.241,-0.023 -0.483,-0.048 -0.725,-0.072 -0.363,-0.024 -0.701,-0.048 -1.064,-0.048 h -0.048 c -2.104,0 -4.232,0.435 -6.191,1.306 -1.789,0.749 -3.457,1.861 -4.908,3.312 l -36.174,36.15 L -151.828,0 c -6.142,6.166 -6.142,16.152 0,22.294 l 64.779,64.779 c 3.071,3.071 7.109,4.619 11.147,4.619 4.038,0 8.052,-1.548 11.147,-4.619 L 0,22.294 C 5.537,16.781 6.093,8.173 1.644,2.007 1.185,1.306 0.629,0.629 0,0 m 42.799,65.093 -64.755,64.779 c -14.411,14.412 -33.586,22.343 -53.946,22.343 -20.384,0 -39.535,-7.931 -53.946,-22.343 l -64.779,-64.779 c -29.742,-29.741 -29.742,-78.15 0,-107.892 l 39.148,-39.124 25.631,-25.631 c 14.411,-14.411 33.562,-22.343 53.946,-22.343 1.04,0 2.055,0.025 3.071,0.073 19.223,0.749 37.189,8.584 50.875,22.27 l 64.755,64.755 c 2.491,2.466 4.739,5.078 6.795,7.81 22.729,29.863 20.456,72.807 -6.795,100.082" /></g></g></g><g
       id="g32"><g
         id="g34"><g
           id="g40"><g
             id="g42"><path
               id="path54"
               style="fill:url(#linearGradient52);stroke:none"
               d="M 308.625,184.361 243.87,119.606 c -0.774,-0.774 -1.62,-1.45 -2.514,-2.031 v 0 c -0.314,-0.217 -0.629,-0.387 -0.943,-0.556 v 0 c -0.17,-0.121 -0.363,-0.217 -0.532,-0.29 v 0 c -0.291,-0.169 -0.581,-0.29 -0.871,-0.411 v 0 c -0.242,-0.121 -0.484,-0.217 -0.749,-0.314 v 0 c -0.098,-0.049 -0.218,-0.073 -0.315,-0.121 v 0 c 0,0 -0.097,-0.024 -0.242,-0.073 v 0 c -0.072,-0.024 -0.144,-0.048 -0.242,-0.072 v 0 c -0.242,-0.097 -0.507,-0.17 -0.749,-0.218 v 0 c -0.097,-0.024 -0.218,-0.048 -0.339,-0.072 v 0 c -0.169,-0.049 -0.362,-0.073 -0.556,-0.121 v 0 c -0.411,-0.073 -0.846,-0.145 -1.306,-0.218 v 0 c -0.241,-0.024 -0.483,-0.048 -0.725,-0.073 v 0 c -0.363,-0.023 -0.701,-0.048 -1.064,-0.048 v 0 h -0.049 c -2.103,0 -4.231,0.435 -6.19,1.306 v 0 c -1.789,0.749 -3.457,1.862 -4.908,3.312 v 0 l -36.173,36.15 c -12.865,-19.078 -23.722,-37.068 -32.257,-53.317 v 0 l 25.631,-25.631 c 14.412,-14.412 33.562,-22.344 53.946,-22.344 v 0 c 1.039,0 2.056,0.026 3.071,0.073 v 0 c 19.223,0.75 37.19,8.585 50.875,22.271 v 0 l 64.755,64.754 c 2.49,2.467 4.739,5.078 6.795,7.811 v 0 l -35.014,34.988 -12.935,2.007 c -0.46,-0.701 -1.016,-1.378 -1.645,-2.007" /></g></g></g></g><g
       id="g56"><g
         clip-path="url(#clipPath62)"
         id="g58"><g
           transform="translate(517.8535,249.4683)"
           id="g64"><path
             id="path66"
             style="fill:#982f32;fill-opacity:1;fill-rule:nonzero;stroke:none"
             d="m 0,0 -64.777,64.753 c -14.411,14.411 -33.562,22.351 -53.945,22.351 -20.384,0 -39.535,-7.94 -53.945,-22.351 L -201.915,35.482 -166.434,0 c 2.489,-2.465 4.741,-5.072 6.803,-7.798 l 29.769,29.746 c 3.081,3.081 7.11,4.622 11.14,4.622 4.029,0 8.082,-1.541 11.163,-4.622 l 64.754,-64.753 c 6.162,-6.163 6.162,-16.141 0,-22.304 l -64.754,-64.753 c -3.081,-3.081 -7.134,-4.622 -11.163,-4.622 -4.03,0 -8.059,1.541 -11.14,4.622 l -29.746,29.745 c -0.023,0 -0.023,0.024 -0.023,0.024 l -35.008,34.984 c -3.176,3.2 -4.717,7.419 -4.575,11.59 -2.796,2.963 -5.64,5.926 -8.414,8.817 -0.474,0.664 -1.019,1.304 -1.611,1.897 l -8.012,7.987 c -0.284,0.284 -0.568,0.593 -0.853,0.877 -14.624,14.885 -26.119,26.143 -26.119,26.143 h -0.024 C -254.32,-21 -259.772,-37.07 -259.772,-53.945 c 0,-16.9 5.452,-32.946 15.549,-46.148 2.062,-2.725 4.337,-5.333 6.802,-7.798 l 48.423,-48.422 16.331,-16.355 c 14.41,-14.41 33.561,-22.35 53.945,-22.35 20.383,0 39.534,7.94 53.945,22.35 L 0,-107.891 C 29.746,-78.145 29.746,-29.746 0,0" /></g><g
           transform="translate(685.7167,249.4788)"
           id="g68"><path
             id="path70"
             style="fill:#757575;fill-opacity:1;fill-rule:nonzero;stroke:none"
             d="m 0,0 -64.755,64.731 c -7.713,7.713 -16.781,13.589 -26.695,17.337 -8.584,3.313 -17.797,5.029 -27.251,5.029 -20.384,0 -39.535,-7.955 -53.946,-22.366 L -202.631,34.771 -167.859,0 c 2.732,-2.732 5.222,-5.634 7.447,-8.632 l 30.564,30.564 c 3.071,3.095 7.109,4.618 11.147,4.618 4.014,0 8.052,-1.523 11.147,-4.618 l 64.755,-64.755 c 6.142,-6.166 6.142,-16.129 0,-22.294 l -64.755,-64.755 c -3.095,-3.071 -7.133,-4.619 -11.147,-4.619 -4.038,0 -8.076,1.548 -11.147,4.619 l -27.445,27.42 c 0,0.024 -0.024,0.024 -0.024,0.049 l -3.119,3.095 -34.191,34.191 c -2.805,2.829 -4.353,6.456 -4.57,10.107 -3.24,3.409 -6.505,6.77 -9.697,10.035 -0.483,0.749 -1.088,1.475 -1.765,2.152 l -16.321,16.297 -3.047,3.071 -2.854,2.854 c -5.416,5.464 -9.454,9.478 -11.122,11.098 l -0.847,0.871 h -0.024 c -19.828,-26.84 -19.803,-63.836 0.024,-90.676 2.225,-2.999 4.691,-5.876 7.423,-8.584 l 34.796,-34.796 14.557,-14.556 15.427,-15.427 c 14.411,-14.412 33.562,-22.367 53.946,-22.367 20.384,0 39.535,7.955 53.946,22.367 L 0,-107.892 C 29.742,-78.151 29.742,-29.766 0,0" /></g></g></g><g
       id="g72"><g
         id="g74"><g
           id="g80"><g
             id="g82"><path
               id="path90"
               style="fill:url(#linearGradient88);stroke:none"
               d="m 513.069,314.21 -29.983,-29.96 34.771,-34.771 c 2.733,-2.732 5.223,-5.634 7.448,-8.633 v 0 l 30.564,30.564 c 3.071,3.095 7.108,4.619 11.146,4.619 v 0 c 0,0 56.825,26.526 27.251,55.518 v 0 c -8.583,3.312 -17.796,5.03 -27.251,5.03 v 0 c -20.384,0 -39.534,-7.955 -53.946,-22.367" /></g></g></g></g><g
       id="g92"><g
         clip-path="url(#clipPath98)"
         id="g94"><g
           transform="translate(537.1661,432.3375)"
           id="g100"><path
             id="path102"
             style="fill:#757575;fill-opacity:1;fill-rule:nonzero;stroke:none"
             d="M 0,0 C 6.211,11.664 19.073,19.261 33.505,17.729 49.852,15.993 62.783,2.187 63.539,-14.234 64.432,-33.603 48.993,-49.587 29.82,-49.587 c -10.089,0 -19.146,4.43 -25.33,11.458 -4.246,4.826 -10.937,6.678 -16.941,4.378 -0.52,-0.2 -1.039,-0.399 -1.56,-0.598 -9.62,-3.686 -12.909,-15.804 -6.269,-23.682 13.57,-16.098 34.74,-25.592 57.9,-22.898 29.959,3.485 54.009,27.668 57.338,57.644 4.382,39.446 -26.53,72.983 -65.138,72.983 -25.065,0 -46.893,-14.149 -57.901,-34.885 -5.463,-10.291 2.278,-22.699 13.93,-22.789 0.114,-0.001 0.228,-0.002 0.342,-0.003 C -8.097,-8.023 -2.685,-5.042 0,0" /></g></g></g><g
       id="g104"><g
         clip-path="url(#clipPath110)"
         id="g106"><g
           transform="translate(768.0709,87.2765)"
           id="g112"><path
             id="path114"
             style="fill:#757575;fill-opacity:1;fill-rule:nonzero;stroke:none"
             d="m 0,0 18.299,29.905 c 4.913,-3.728 8.217,-5.168 14.91,-5.168 h 0.593 c 12.538,0 22.45,9.827 22.45,20.756 l -0.678,83.87 36.343,-0.085 0.593,-83.955 C 92.51,14.402 66.587,-9.404 33.971,-9.404 H 32.954 C 20.077,-9.404 9.911,-6.438 0,0" /></g><g
           transform="translate(881.9303,129.7196)"
           id="g116"><path
             id="path118"
             style="fill:#757575;fill-opacity:1;fill-rule:nonzero;stroke:none"
             d="M 0,0 V 86.919 H 36.513 V 0.085 c 0,-11.352 9.742,-18.892 20.077,-18.892 10.251,0 20.248,7.709 20.248,18.892 v 86.834 h 36.513 V 0 c 0,-31.345 -25.415,-53.456 -56.676,-53.456 C 25.414,-53.456 0,-31.345 0,0" /></g><g
           transform="translate(1135.8268,216.8085)"
           id="g120"><path
             id="path122"
             style="fill:#757575;fill-opacity:1;fill-rule:nonzero;stroke:none"
             d="m 0,0 v -138.088 h -11.521 l -70.231,68.027 v -66.757 h -36.259 V 1.186 h 11.691 l 69.976,-67.773 V 0 Z" /></g><g
           transform="translate(1253.0739,182.7523)"
           id="g124"><path
             id="path126"
             style="fill:#757575;fill-opacity:1;fill-rule:nonzero;stroke:none"
             d="M 0,0 H -32.7 V -102.677 H -69.044 V 0 h -32.785 V 33.887 H 0 Z" /></g><g
           transform="translate(1369.0514,148.442)"
           id="g128"><path
             id="path130"
             style="fill:#757575;fill-opacity:1;fill-rule:nonzero;stroke:none"
             d="m 0,0 c 0,21.094 -16.604,37.36 -38.292,37.36 -21.687,0 -38.292,-16.266 -38.292,-37.36 0,-21.01 16.605,-37.191 38.292,-37.191 C -16.604,-37.191 0,-21.01 0,0 m -113.266,-0.254 c 0,41.003 32.532,72.094 74.974,72.094 42.443,0 74.975,-31.091 74.975,-72.094 0,-40.664 -32.532,-71.586 -75.06,-71.586 -42.442,0 -74.889,30.922 -74.889,71.586" /></g><g
           transform="translate(1416.4078,103.2033)"
           id="g132"><path
             id="path134"
             style="fill:#757575;fill-opacity:1;fill-rule:nonzero;stroke:none"
             d="m 0,0 21.941,21.518 c 5.677,-8.387 16.266,-13.47 27.703,-13.47 7.71,0 15.25,2.796 15.25,8.387 0,7.032 -13.979,13.216 -27.365,19.146 -17.282,7.455 -32.107,18.807 -32.107,39.393 0,23.636 22.45,40.495 48.373,40.495 20.841,0 37.106,-9.827 42.443,-23.297 L 75.313,72.009 c -4.066,7.201 -14.571,10.336 -21.094,10.336 -7.455,0 -12.792,-3.813 -12.792,-8.472 0,-6.269 9.657,-8.302 24.398,-14.487 21.349,-8.98 35.496,-22.026 35.496,-42.188 0,-26.009 -24.228,-42.189 -51.592,-42.189 C 27.278,-24.991 6.862,-15.08 0,0" /></g><g
           transform="translate(822.7877,353.3317)"
           id="g136"><path
             id="path138"
             style="fill:#982f32;fill-opacity:1;fill-rule:nonzero;stroke:none"
             d="m 0,0 v -15.096 c 0,-18.18 -9.091,-28.569 -26.621,-28.569 -17.531,0 -26.621,10.389 -26.621,28.569 V 43.99 c 0,18.18 9.09,28.568 26.621,28.568 C -9.091,72.558 0,62.17 0,43.99 V 32.952 h -16.882 v 12.174 c 0,8.116 -3.571,11.2 -9.253,11.2 -5.68,0 -9.252,-3.084 -9.252,-11.2 v -61.358 c 0,-8.117 3.572,-11.038 9.252,-11.038 5.682,0 9.253,2.921 9.253,11.038 l 0,16.232 z" /></g><g
           transform="translate(850.0563,337.0994)"
           id="g140"><path
             id="path142"
             style="fill:#982f32;fill-opacity:1;fill-rule:nonzero;stroke:none"
             d="m 0,0 c 0,-8.116 3.571,-11.2 9.252,-11.2 5.682,0 9.253,3.084 9.253,11.2 v 61.358 c 0,8.116 -3.571,11.2 -9.253,11.2 C 3.571,72.558 0,69.474 0,61.358 Z m -17.855,60.222 c 0,18.18 9.577,28.569 27.107,28.569 17.531,0 27.108,-10.389 27.108,-28.569 V 1.136 c 0,-18.18 -9.577,-28.569 -27.108,-28.569 -17.53,0 -27.107,10.389 -27.107,28.569 z" /></g><g
           transform="translate(914.1744,393.2631)"
           id="g144"><path
             id="path146"
             style="fill:#982f32;fill-opacity:1;fill-rule:nonzero;stroke:none"
             d="m 0,0 h -0.325 v -82.298 h -16.07 V 31.328 H 6.006 l 18.017,-68.013 h 0.325 V 31.328 H 40.256 V -82.298 H 21.913 Z" /></g><g
           transform="translate(991.276,425.89)"
           id="g148"><path
             id="path150"
             style="fill:#982f32;fill-opacity:1;fill-rule:nonzero;stroke:none"
             d="M 0,0 C 17.369,0 26.297,-10.389 26.297,-28.569 V -32.14 H 9.415 v 4.707 c 0,8.117 -3.247,11.201 -8.928,11.201 -5.681,0 -8.927,-3.084 -8.927,-11.201 0,-8.278 3.571,-14.446 15.257,-24.673 14.934,-13.148 19.642,-22.563 19.642,-35.548 0,-18.181 -9.09,-28.569 -26.621,-28.569 -17.531,0 -26.621,10.388 -26.621,28.569 v 6.979 h 16.882 v -8.116 c 0,-8.116 3.571,-11.038 9.252,-11.038 5.681,0 9.253,2.922 9.253,11.038 0,8.279 -3.572,14.447 -15.259,24.673 -14.934,13.149 -19.641,22.563 -19.641,35.549 C -26.296,-10.389 -17.368,0 0,0" /></g><g
           transform="translate(1022.7662,424.5915)"
           id="g152"><path
             id="path154"
             style="fill:#982f32;fill-opacity:1;fill-rule:nonzero;stroke:none"
             d="M 0,0 H 55.189 V -16.232 H 36.522 v -97.394 H 18.667 v 97.394 H 0 Z" /></g><g
           transform="translate(1103.6012,408.3592)"
           id="g156"><path
             id="path158"
             style="fill:#982f32;fill-opacity:1;fill-rule:nonzero;stroke:none"
             d="m 0,0 v -34.899 h 6.979 c 6.656,0 10.714,2.921 10.714,12.011 v 11.201 C 17.693,-3.571 14.934,0 8.603,0 Z m 19.479,-97.394 c -0.974,2.922 -1.624,4.708 -1.624,13.96 v 17.856 c 0,10.551 -3.571,14.446 -11.687,14.446 H 0 V -97.394 H -17.855 V 16.232 H 9.09 c 18.505,0 26.459,-8.603 26.459,-26.134 v -8.927 c 0,-11.688 -3.734,-19.155 -11.688,-22.888 v -0.325 c 8.928,-3.733 11.85,-12.174 11.85,-24.023 v -17.531 c 0,-5.519 0.162,-9.577 1.948,-13.798 z" /></g><g
           transform="translate(1168.0436,424.5915)"
           id="g160"><path
             id="path162"
             style="fill:#982f32;fill-opacity:1;fill-rule:nonzero;stroke:none"
             d="m 0,0 v -87.654 c 0,-8.117 3.571,-11.038 9.252,-11.038 5.682,0 9.253,2.921 9.253,11.038 V 0 h 16.881 v -86.518 c 0,-18.18 -9.09,-28.569 -26.62,-28.569 -17.532,0 -26.621,10.389 -26.621,28.569 l 0,86.518 z" /></g><g
           transform="translate(1232.3229,348.6243)"
           id="g164"><path
             id="path166"
             style="fill:#982f32;fill-opacity:1;fill-rule:nonzero;stroke:none"
             d="M 0,0 -22.562,75.967 H -3.896 L 9.577,24.186 H 9.902 L 23.375,75.967 H 40.419 L 17.855,0 V -37.659 H 0 Z" /></g><g
           transform="translate(1297.7399,376.7062)"
           id="g168"><path
             id="path170"
             style="fill:#982f32;fill-opacity:1;fill-rule:nonzero;stroke:none"
             d="M 0,0 H 24.511 V -16.232 H 0 V -49.509 H 30.841 V -65.741 H -17.855 V 47.885 H 30.841 V 31.653 L 0,31.653 Z" /></g><g
           transform="translate(1355.8512,393.2631)"
           id="g172"><path
             id="path174"
             style="fill:#982f32;fill-opacity:1;fill-rule:nonzero;stroke:none"
             d="m 0,0 h -0.325 v -82.298 h -16.07 V 31.328 H 6.006 l 18.017,-68.013 h 0.325 V 31.328 H 40.256 V -82.298 H 21.913 Z" /></g><g
           transform="translate(1426.7848,408.3592)"
           id="g176"><path
             id="path178"
             style="fill:#982f32;fill-opacity:1;fill-rule:nonzero;stroke:none"
             d="m 0,0 v -81.161 h 10.063 c 5.682,0 9.091,2.921 9.091,11.037 v 59.086 C 19.154,-2.922 15.745,0 10.063,0 Z m -17.855,16.232 h 28.244 c 17.855,0 26.621,-9.901 26.621,-28.082 v -57.462 c 0,-18.18 -8.766,-28.082 -26.621,-28.082 h -28.244 z" /></g><g
           transform="translate(1491.5504,337.0994)"
           id="g180"><path
             id="path182"
             style="fill:#982f32;fill-opacity:1;fill-rule:nonzero;stroke:none"
             d="m 0,0 c 0,-8.116 3.571,-11.2 9.252,-11.2 5.682,0 9.253,3.084 9.253,11.2 v 61.358 c 0,8.116 -3.571,11.2 -9.253,11.2 C 3.571,72.558 0,69.474 0,61.358 Z m -17.855,60.222 c 0,18.18 9.577,28.569 27.107,28.569 17.531,0 27.108,-10.389 27.108,-28.569 V 1.136 c 0,-18.18 -9.577,-28.569 -27.108,-28.569 -17.53,0 -27.107,10.389 -27.107,28.569 z" /></g></g></g><g
       id="g184"><g
         clip-path="url(#clipPath190)"
         id="g186"><g
           transform="translate(1153.2649,289.913)"
           id="g192"><path
             id="path194"
             style="fill:#982f32;fill-opacity:1;fill-rule:nonzero;stroke:none"
             d="m 0,0 3.221,-9.912 c 0.638,-1.966 2.47,-3.297 4.537,-3.297 H 18.18 c 4.622,0 6.544,-5.914 2.804,-8.63 l -8.431,-6.126 c -1.672,-1.215 -2.372,-3.369 -1.733,-5.334 l 3.22,-9.912 c 1.428,-4.396 -3.602,-8.051 -7.342,-5.335 l -8.431,6.126 c -1.672,1.215 -3.937,1.215 -5.609,0 l -8.431,-6.126 c -3.739,-2.716 -8.77,0.939 -7.342,5.335 l 3.22,9.912 c 0.639,1.965 -0.061,4.119 -1.733,5.334 l -8.431,6.126 c -3.739,2.716 -1.818,8.63 2.804,8.63 h 10.422 c 2.067,0 3.899,1.331 4.537,3.297 L -9.075,0 C -7.647,4.396 -1.428,4.396 0,0" /></g><g
           transform="translate(1215.1083,286.8403)"
           id="g196"><path
             id="path198"
             style="fill:#757575;fill-opacity:1;fill-rule:nonzero;stroke:none"
             d="m 0,0 2.792,-8.593 c 0.554,-1.704 2.142,-2.858 3.934,-2.858 h 9.035 c 4.007,0 5.673,-5.127 2.431,-7.482 l -7.31,-5.311 c -1.449,-1.053 -2.056,-2.92 -1.502,-4.624 l 2.792,-8.593 c 1.238,-3.811 -3.123,-6.98 -6.365,-4.625 l -7.309,5.311 c -1.45,1.053 -3.413,1.053 -4.863,0 l -7.309,-5.311 c -3.242,-2.355 -7.603,0.814 -6.365,4.625 l 2.792,8.593 c 0.554,1.704 -0.053,3.571 -1.503,4.624 l -7.309,5.311 c -3.242,2.355 -1.576,7.482 2.431,7.482 h 9.035 c 1.792,0 3.38,1.154 3.934,2.858 L -7.867,0 C -6.629,3.811 -1.238,3.811 0,0" /></g><g
           transform="translate(1090.2139,286.8403)"
           id="g200"><path
             id="path202"
             style="fill:#757575;fill-opacity:1;fill-rule:nonzero;stroke:none"
             d="m 0,0 2.792,-8.593 c 0.554,-1.704 2.142,-2.858 3.934,-2.858 h 9.035 c 4.007,0 5.672,-5.127 2.431,-7.482 l -7.31,-5.311 c -1.449,-1.053 -2.056,-2.92 -1.502,-4.624 l 2.792,-8.593 c 1.238,-3.811 -3.123,-6.98 -6.365,-4.625 l -7.31,5.311 c -1.449,1.053 -3.412,1.053 -4.862,0 l -7.309,-5.311 c -3.242,-2.355 -7.603,0.814 -6.365,4.625 l 2.792,8.593 c 0.554,1.704 -0.053,3.571 -1.503,4.624 l -7.309,5.311 c -3.242,2.355 -1.576,7.482 2.431,7.482 h 9.035 c 1.792,0 3.38,1.154 3.934,2.858 L -7.867,0 C -6.629,3.811 -1.238,3.811 0,0" /></g><g
           transform="translate(1333.7847,164.9518)"
           id="g204"><path
             id="path206"
             style="fill:#982f32;fill-opacity:1;fill-rule:nonzero;stroke:none"
             d="M 0,0 2.184,-6.722 C 2.617,-8.055 3.86,-8.958 5.261,-8.958 h 7.068 c 3.135,0 4.438,-4.011 1.902,-5.853 L 8.513,-18.966 C 7.379,-19.789 6.905,-21.25 7.338,-22.583 l 2.184,-6.722 c 0.968,-2.981 -2.443,-5.46 -4.979,-3.618 l -5.718,4.155 c -1.134,0.824 -2.67,0.824 -3.804,0 l -5.718,-4.155 c -2.536,-1.842 -5.948,0.637 -4.979,3.618 l 2.184,6.722 c 0.433,1.333 -0.041,2.794 -1.175,3.617 l -5.719,4.155 c -2.535,1.842 -1.232,5.853 1.902,5.853 h 7.068 c 1.402,0 2.644,0.903 3.077,2.236 L -6.154,0 C -5.186,2.981 -0.969,2.981 0,0" /></g></g></g></g></svg>